<?xml version="1.0" standalone="no"?><!DOCTYPE svg PUBLIC "-//W3C//DTD SVG 1.1//EN" "http://www.w3.org/Graphics/SVG/1.1/DTD/svg11.dtd"><svg t="1627540937168" class="icon" viewBox="0 0 1024 1024" version="1.1" xmlns="http://www.w3.org/2000/svg" p-id="3162" xmlns:xlink="http://www.w3.org/1999/xlink" width="200" height="200"><defs><style type="text/css">@font-face { font-family: feedback-iconfont; src: url("//at.alicdn.com/t/font_1031158_1uhr8ri0pk5.eot?#iefix") format("embedded-opentype"), url("//at.alicdn.com/t/font_1031158_1uhr8ri0pk5.woff2") format("woff2"), url("//at.alicdn.com/t/font_1031158_1uhr8ri0pk5.woff") format("woff"), url("//at.alicdn.com/t/font_1031158_1uhr8ri0pk5.ttf") format("truetype"), url("//at.alicdn.com/t/font_1031158_1uhr8ri0pk5.svg#iconfont") format("svg"); }
</style></defs><path d="M853.333333 533.333333C865.115407 533.333333 874.666667 523.782074 874.666667 512 874.666667 500.217926 865.115407 490.666667 853.333333 490.666667L170.666667 490.666667C158.884592 490.666667 149.333333 500.217926 149.333333 512 149.333333 523.782074 158.884592 533.333333 170.666667 533.333333L853.333333 533.333333Z" p-id="3163"></path><path d="M490.666667 853.333333C490.666667 865.115407 500.217926 874.666667 512 874.666667 523.782074 874.666667 533.333333 865.115407 533.333333 853.333333L533.333333 170.666667C533.333333 158.884592 523.782074 149.333333 512 149.333333 500.217926 149.333333 490.666667 158.884592 490.666667 170.666667L490.666667 853.333333Z" p-id="3164"></path></svg>