<?xml version="1.0" standalone="no"?><!DOCTYPE svg PUBLIC "-//W3C//DTD SVG 1.1//EN" "http://www.w3.org/Graphics/SVG/1.1/DTD/svg11.dtd"><svg t="1743249548893" class="icon" viewBox="0 0 1024 1024" version="1.1" xmlns="http://www.w3.org/2000/svg" p-id="13240" xmlns:xlink="http://www.w3.org/1999/xlink" width="64" height="64"><path d="M832 512a32 32 0 1 1 64 0v352a32 32 0 0 1-32 32H160a32 32 0 0 1-32-32V160a32 32 0 0 1 32-32h352a32 32 0 0 1 0 64H192v640h640z" p-id="13241"></path><path d="M469.952 554.24l52.8-7.552L847.104 222.4a32 32 0 1 0-45.248-45.248L477.44 501.44l-7.552 52.8z m422.4-422.4a96 96 0 0 1 0 135.808l-331.84 331.84a32 32 0 0 1-18.112 9.088L436.8 623.68a32 32 0 0 1-36.224-36.224l15.104-105.6a32 32 0 0 1 9.024-18.112l331.904-331.84a96 96 0 0 1 135.744 0z" p-id="13242"></path></svg>