<?xml version="1.0" standalone="no"?><!DOCTYPE svg PUBLIC "-//W3C//DTD SVG 1.1//EN" "http://www.w3.org/Graphics/SVG/1.1/DTD/svg11.dtd"><svg t="1740881564984" class="icon" viewBox="0 0 1024 1024" version="1.1" xmlns="http://www.w3.org/2000/svg" p-id="5883" width="64" height="64" xmlns:xlink="http://www.w3.org/1999/xlink"><path d="M875.025 139c25.714 0 49.063 10.117 66.291 26.588C959.607 183.067 971 207.703 971 235l-0.004-0.499 0.004 0.53V790c0 53.02-42.98 96-96 96H150c-53.02 0-96-42.98-96-96V235c0-27.428 11.502-52.17 29.946-69.663C101.15 149.014 124.392 139 149.975 139zM907 459.125H118V790c0 17.496 14.042 31.713 31.47 31.996l0.53 0.004h725c17.673 0 32-14.327 32-32V459.125zM875 203H150a31.871 31.871 0 0 0-20.564 7.481c-6.99 5.875-11.436 14.69-11.436 24.55v160.094h789V235c0-0.166-0.001-0.332-0.004-0.498-0.147-9.05-4.038-17.184-10.188-22.92a9.47 9.47 0 0 0-0.104-0.097l0.104 0.098A31.875 31.875 0 0 0 875 203z m-661.05 53.375c23.555 0 42.65 19.112 42.65 42.687 0 23.576-19.095 42.688-42.65 42.688s-42.65-19.112-42.65-42.687c0-23.576 19.095-42.688 42.65-42.688z m127.95 0c23.555 0 42.65 19.112 42.65 42.687 0 23.576-19.095 42.688-42.65 42.688s-42.65-19.112-42.65-42.687c0-23.576 19.095-42.688 42.65-42.688z" p-id="5884"></path></svg>