<?xml version="1.0" standalone="no"?><!DOCTYPE svg PUBLIC "-//W3C//DTD SVG 1.1//EN" "http://www.w3.org/Graphics/SVG/1.1/DTD/svg11.dtd"><svg t="1627054491981" class="icon" viewBox="0 0 1024 1024" version="1.1" xmlns="http://www.w3.org/2000/svg" p-id="1870" xmlns:xlink="http://www.w3.org/1999/xlink" width="200" height="200"><defs><style type="text/css">@font-face { font-family: feedback-iconfont; src: url("//at.alicdn.com/t/font_1031158_1uhr8ri0pk5.eot?#iefix") format("embedded-opentype"), url("//at.alicdn.com/t/font_1031158_1uhr8ri0pk5.woff2") format("woff2"), url("//at.alicdn.com/t/font_1031158_1uhr8ri0pk5.woff") format("woff"), url("//at.alicdn.com/t/font_1031158_1uhr8ri0pk5.ttf") format("truetype"), url("//at.alicdn.com/t/font_1031158_1uhr8ri0pk5.svg#iconfont") format("svg"); }
</style></defs><path d="M512 0C229.23 0 0 229.23 0 512s229.23 512 512 512c249.326 0 461.202-179.44 504.153-422.235a511.605 511.605 0 0 0 4.857-34.13c1.483-13.713-8.432-26.032-22.146-27.515-13.714-1.483-26.033 8.432-27.516 22.146a461.656 461.656 0 0 1-4.382 30.797C928.218 812.098 736.993 974.05 512 974.05 256.818 974.049 49.951 767.182 49.951 512S256.818 49.951 512 49.951c186.044 0 351.703 110.966 424.293 278.803 5.476 12.66 20.178 18.485 32.838 13.01 12.66-5.476 18.485-20.178 13.01-32.839C901.71 122.961 718.142 0 512 0z" fill="" p-id="1871"></path><path d="M958.443 350.247l24.975-24.976H724.293c-13.794 0-24.976 11.182-24.976 24.976 0 13.793 11.182 24.975 24.976 24.975h259.125c13.794 0 24.976-11.182 24.976-24.975V74.927c0-13.794-11.182-24.976-24.976-24.976-13.793 0-24.975 11.182-24.975 24.976v275.32z" fill="" p-id="1872"></path></svg>