<?xml version="1.0" standalone="no"?><!DOCTYPE svg PUBLIC "-//W3C//DTD SVG 1.1//EN" "http://www.w3.org/Graphics/SVG/1.1/DTD/svg11.dtd"><svg t="1743249245149" class="icon" viewBox="0 0 1024 1024" version="1.1" xmlns="http://www.w3.org/2000/svg" p-id="1032" id="mx_n_1743249245150" xmlns:xlink="http://www.w3.org/1999/xlink" width="64" height="64"><path d="M658.672941 121.434353A120.410353 120.410353 0 0 0 542.117647 30.117647c-56.139294 0-103.002353 38.731294-116.314353 91.316706H210.823529v60.235294h662.588236v-60.235294h-214.738824zM542.117647 90.352941c23.009882 0 42.465882 13.312 52.705882 31.081412H490.435765A59.512471 59.512471 0 0 1 542.117647 90.352941zM783.058824 240.941176h60.235294v633.434353c0 49.814588-40.538353 90.352941-90.352942 90.352942h-421.647058c-49.814588 0-90.352941-40.538353-90.352942-90.352942V240.941176h60.235295v633.434353a30.117647 30.117647 0 0 0 30.117647 30.117647h421.647058a30.117647 30.117647 0 0 0 30.117648-30.117647V240.941176zM481.882353 301.176471v481.882353H421.647059V301.176471h60.235294z m180.705882 0v481.882353h-60.235294V301.176471h60.235294z" p-id="1033" fill="#000000"></path></svg>