<?xml version="1.0" standalone="no"?><!DOCTYPE svg PUBLIC "-//W3C//DTD SVG 1.1//EN" "http://www.w3.org/Graphics/SVG/1.1/DTD/svg11.dtd"><svg t="1650010162263" class="icon" viewBox="0 0 1024 1024" version="1.1" xmlns="http://www.w3.org/2000/svg" p-id="6541" xmlns:xlink="http://www.w3.org/1999/xlink" width="32" height="32"><defs><style type="text/css"></style></defs><path d="M936.143535 912.482137 86.251921 912.482137c-8.438183 0-16.136515-4.426823-20.425192-11.711739-4.242627-7.28594-4.242627-16.184611-0.185218-23.5166l424.947342-755.457848c4.241604-7.40055 12.079106-12.035104 20.61041-12.035104 8.53028 0 16.367783 4.588505 20.61041 12.035104l424.901293 755.457848c4.15053 7.331989 4.059456 16.23066-0.185218 23.5166C952.329169 908.055314 944.537715 912.482137 936.143535 912.482137zM126.598838 865.266789l769.152754 0L511.199263 181.576475 126.598838 865.266789z" p-id="6542"></path><path d="M511.199263 676.401304c-13.050224 0-23.606651-10.605545-23.606651-23.607674L487.592612 416.71075c0-13.025665 10.556427-23.607674 23.606651-23.607674 13.048177 0 23.608697 10.583033 23.608697 23.607674l0 236.08288C534.80796 665.795758 524.24744 676.401304 511.199263 676.401304z" p-id="6543"></path><path d="M511.199263 818.048371c-13.050224 0-23.606651-10.604522-23.606651-23.606651l0-47.215348c0-13.003152 10.556427-23.608697 23.606651-23.608697 13.048177 0 23.608697 10.605545 23.608697 23.608697l0 47.215348C534.80796 807.443849 524.24744 818.048371 511.199263 818.048371z" p-id="6544"></path></svg>